# xmcd
#
# Track frame offsets:
#	150
#	21773
#	39132
#	60434
#	76237
#	95200
#	109802
#	120366
#	135086
#	151755
#	166772
#	186281
#	202808
#	219504
#	226619
#
# Disc length: 3290 seconds
#
# Revision: 2
# Processed by: cddbd v1.5.2PL0 Copyright (c) Steve Scherf et al.
# Submitted via: EasyCDDAExtractor 12.0.0.1
#
DISCID=a70cd80f
DTITLE=Various Artist - Magic of the Musicals CD1
DYEAR=2003
DGENRE=Musical
TTITLE0=All that Jazz - Chicago
TTITLE1=Dancing Queen - Mamma Mia
TTITLE2=Shakalaka Baby - Bombay Dreams
TTITLE3=The Circle of Life - Lion King
TTITLE4=Only You - Starlight Express
TTITLE5=Summer Nights - Grease
TTITLE6=Chitty Chitty Bang Bang - Chitty Chitty Bang Bang
TTITLE7=You Walk with Me - The Full Monty
TTITLE8=We are the Champions - We Will Rock You
TTITLE9=What Kind of Fool - Saturday Night Fever
TTITLE10=Elaborate Lives - Aida
TTITLE11=Our Kind of Love - The Beautiful Game
TTITLE12=Whistle Down the Wind - Whistle Down the Wind
TTITLE13=Ruby Baby - Smokey Joe's Cafe
TTITLE14=If I Can't Love Her - Beauty and the Beast
EXTD=
EXTT0=
EXTT1=
EXTT2=
EXTT3=
EXTT4=
EXTT5=
EXTT6=
EXTT7=
EXTT8=
EXTT9=
EXTT10=
EXTT11=
EXTT12=
EXTT13=
EXTT14=
PLAYORDER=
